<?xml version="1.0" standalone="no"?>
<!DOCTYPE svg PUBLIC "-//W3C//DTD SVG 20010904//EN"
 "http://www.w3.org/TR/2001/REC-SVG-20010904/DTD/svg10.dtd">
<svg version="1.0" xmlns="http://www.w3.org/2000/svg"
 width="264.000000pt" height="240.000000pt" viewBox="0 0 264.000000 240.000000"
 preserveAspectRatio="xMidYMid meet">

<g transform="translate(0.000000,240.000000) scale(0.100000,-0.100000)"
fill="#000000" stroke="none">
<path d="M480 1200 l0 -380 118 0 117 0 -3 162 c-4 157 -3 162 15 147 10 -9
94 -82 186 -163 l169 -147 446 3 c446 3 447 3 500 27 92 42 132 107 132 219 0
68 -19 111 -64 149 -63 52 -87 56 -396 60 -157 3 -293 9 -302 14 -10 5 -18 21
-18 34 l0 25 -116 0 -117 0 6 -46 c6 -55 46 -109 104 -142 58 -32 153 -41 418
-42 248 0 255 -2 255 -51 0 -52 -8 -54 -346 -59 l-314 -5 46 -57 c25 -32 43
-58 40 -58 -3 0 -76 57 -163 126 -87 70 -183 145 -212 167 -49 36 -53 42 -37
51 10 6 60 41 111 79 l93 67 420 0 419 0 77 100 77 100 -536 0 -536 0 -147
-124 c-81 -68 -158 -136 -171 -150 -14 -14 -29 -26 -34 -26 -5 0 -7 63 -5 150
l3 150 -117 0 -118 0 0 -380z"/>
</g>
</svg>
